<svg id="visual" viewBox="0 0 1361 609" width="1361" height="609" xmlns="http://www.w3.org/2000/svg" xmlns:xlink="http://www.w3.org/1999/xlink" version="1.1"><path d="M0 92L124 92L247 74L371 74L495 86L619 38L742 92L866 68L990 105L1114 105L1237 50L1361 92L1361 0L1237 0L1114 0L990 0L866 0L742 0L619 0L495 0L371 0L247 0L124 0L0 0Z" fill="#00cc8e"></path><path d="M0 196L124 226L247 214L371 342L495 306L619 239L742 190L866 202L990 275L1114 239L1237 306L1361 312L1361 90L1237 48L1114 103L990 103L866 66L742 90L619 36L495 84L371 72L247 72L124 90L0 90Z" fill="#00b98a"></path><path d="M0 239L124 293L247 281L371 397L495 391L619 372L742 299L866 299L990 366L1114 306L1237 427L1361 385L1361 310L1237 304L1114 237L990 273L866 200L742 188L619 237L495 304L371 340L247 212L124 224L0 194Z" fill="#00a784"></path><path d="M0 525L124 519L247 549L371 525L495 543L619 537L742 488L866 549L990 500L1114 494L1237 543L1361 525L1361 383L1237 425L1114 304L990 364L866 297L742 297L619 370L495 389L371 395L247 279L124 291L0 237Z" fill="#00957c"></path><path d="M0 610L124 610L247 610L371 610L495 610L619 610L742 610L866 610L990 610L1114 610L1237 610L1361 610L1361 523L1237 541L1114 492L990 498L866 547L742 486L619 535L495 541L371 523L247 547L124 517L0 523Z" fill="#038373"></path></svg>